<svg width="89" height="16" viewBox="0 0 89 16" fill="none" xmlns="http://www.w3.org/2000/svg">
<g clip-path="url(#clip0_3_52)">
<path d="M74.3027 8.13596C73.7004 8.13596 73.1859 7.94772 72.7592 7.57125C72.3576 7.19478 72.1569 6.74301 72.1569 6.21596C72.1569 5.6638 72.3576 5.18694 72.7592 4.78537C73.1859 4.3838 73.7004 4.18301 74.3027 4.18301C74.8549 4.18301 75.3192 4.3838 75.6957 4.78537C76.0972 5.18694 76.298 5.6638 76.298 6.21596C76.298 6.74301 76.0972 7.19478 75.6957 7.57125C75.3192 7.94772 74.8549 8.13596 74.3027 8.13596Z" fill="#EC407A"/>
<path d="M80.5772 8.13596C79.9749 8.13596 79.4604 7.94772 79.0337 7.57125C78.6321 7.19478 78.4314 6.74301 78.4314 6.21596C78.4314 5.6638 78.6321 5.18694 79.0337 4.78537C79.4604 4.3838 79.9749 4.18301 80.5772 4.18301C81.1294 4.18301 81.5937 4.3838 81.9702 4.78537C82.3718 5.18694 82.5725 5.6638 82.5725 6.21596C82.5725 6.74301 82.3718 7.19478 81.9702 7.57125C81.5937 7.94772 81.1294 8.13596 80.5772 8.13596Z" fill="#FFB300"/>
<path d="M86.8517 8.13596C86.2494 8.13596 85.7349 7.94772 85.3082 7.57125C84.9067 7.19478 84.7059 6.74301 84.7059 6.21596C84.7059 5.6638 84.9067 5.18694 85.3082 4.78537C85.7349 4.3838 86.2494 4.18301 86.8517 4.18301C87.4039 4.18301 87.8682 4.3838 88.2447 4.78537C88.6463 5.18694 88.847 5.6638 88.847 6.21596C88.847 6.74301 88.6463 7.19478 88.2447 7.57125C87.8682 7.94772 87.4039 8.13596 86.8517 8.13596Z" fill="#00B3C5"/>
<path d="M63.0868 15.8871C62.6099 15.8871 62.2083 15.749 61.8821 15.473C61.5558 15.1969 61.3927 14.8455 61.3927 14.4188V5.98591C61.3927 5.58434 61.5432 5.24552 61.8444 4.96944C62.1707 4.66826 62.5848 4.51767 63.0868 4.51767C63.5385 4.51767 63.9025 4.65571 64.1785 4.93179C64.4797 5.18277 64.6554 5.4965 64.7056 5.87297C64.9817 5.4463 65.3581 5.08238 65.835 4.7812C66.3119 4.48003 66.8138 4.32944 67.3409 4.32944C67.6672 4.32944 67.9809 4.36708 68.2821 4.44238C68.6334 4.54277 68.9221 4.74356 69.148 5.04473C69.3738 5.32081 69.4868 5.64709 69.4868 6.02356C69.4868 6.55061 69.3111 6.98983 68.9597 7.3412C68.6334 7.66748 68.2444 7.78042 67.7927 7.68003C67.4664 7.60473 67.1401 7.56708 66.8138 7.56708C66.2366 7.56708 65.7597 7.76787 65.3832 8.16944C65.0068 8.57101 64.7809 9.38669 64.7056 10.6165V14.3812C64.7056 14.8079 64.5425 15.1718 64.2162 15.473C63.915 15.749 63.5385 15.8871 63.0868 15.8871Z" fill="black"/>
<path d="M53.2056 16C52.1264 16 51.135 15.749 50.2315 15.2471C49.3279 14.7451 48.6001 14.0549 48.0479 13.1765C47.5209 12.273 47.2574 11.2565 47.2574 10.1271C47.2574 8.97258 47.5209 7.96865 48.0479 7.11532C48.6001 6.23689 49.3279 5.55924 50.2315 5.08238C51.135 4.58042 52.1264 4.32944 53.2056 4.32944C54.3099 4.32944 55.3013 4.58042 56.1797 5.08238C57.0832 5.55924 57.7985 6.23689 58.3256 7.11532C58.8526 7.96865 59.1162 8.97258 59.1162 10.1271C59.1162 11.2565 58.8526 12.273 58.3256 13.1765C57.7985 14.0549 57.0832 14.7451 56.1797 15.2471C55.3013 15.749 54.3099 16 53.2056 16ZM53.2056 12.9506C53.9836 12.9506 54.6111 12.6871 55.0879 12.16C55.5899 11.6079 55.8409 10.9302 55.8409 10.1271C55.8409 9.29885 55.5899 8.63375 55.0879 8.13179C54.6111 7.62983 53.9836 7.37885 53.2056 7.37885C52.4526 7.37885 51.8126 7.62983 51.2856 8.13179C50.7836 8.63375 50.5326 9.29885 50.5326 10.1271C50.5326 10.9302 50.7836 11.6079 51.2856 12.16C51.8126 12.6871 52.4526 12.9506 53.2056 12.9506Z" fill="black"/>
<path d="M43.1206 16C42.0414 16 41.1504 15.6863 40.4476 15.0588C39.7449 14.4314 39.3935 13.4651 39.3935 12.16V8.09412C39.3935 7.84314 39.268 7.71765 39.017 7.71765H38.4523C38.0006 7.71765 37.6618 7.57961 37.4359 7.30353C37.21 7.02745 37.097 6.67608 37.097 6.24941C37.097 5.79765 37.21 5.43372 37.4359 5.15765C37.6618 4.85647 38.0006 4.70588 38.4523 4.70588H39.017C39.268 4.70588 39.3935 4.58039 39.3935 4.32941V1.54353C39.3935 1.11686 39.5441 0.75294 39.8453 0.451764C40.1465 0.150588 40.5355 0 41.0123 0C41.4892 0 41.8782 0.150588 42.1794 0.451764C42.5057 0.727842 42.6688 1.09176 42.6688 1.54353V4.32941C42.6688 4.58039 42.7943 4.70588 43.0453 4.70588H44.4382C44.8649 4.70588 45.2163 4.85647 45.4923 5.15765C45.7935 5.45882 45.9441 5.82274 45.9441 6.24941C45.9441 6.67608 45.7935 7.02745 45.4923 7.30353C45.2163 7.57961 44.8523 7.71765 44.4006 7.71765H43.0453C42.7943 7.71765 42.6688 7.84314 42.6688 8.09412V11.6329C42.6688 12.0847 42.7441 12.3984 42.8947 12.5741C43.0704 12.7498 43.2837 12.8376 43.5347 12.8376C43.6351 12.8376 43.8359 12.8125 44.137 12.7624C44.4382 12.6871 44.6265 12.6494 44.7018 12.6494C45.1033 12.6494 45.4421 12.8 45.7182 13.1012C45.9943 13.4024 46.1323 13.7663 46.1323 14.1929C46.1323 14.5192 46.0319 14.8204 45.8312 15.0965C45.6555 15.3725 45.3669 15.5733 44.9653 15.6988C44.639 15.7992 44.3253 15.8745 44.0241 15.9247C43.7229 15.9749 43.4217 16 43.1206 16Z" fill="black"/>
<path d="M31.4109 16C29.7042 16 28.2987 15.6487 27.1944 14.9459C26.9685 14.7953 26.8054 14.6196 26.705 14.4188C26.6046 14.193 26.5544 13.9796 26.5544 13.7788C26.5544 13.3522 26.6925 12.9632 26.9685 12.6118C27.2697 12.2604 27.6336 12.0847 28.0603 12.0847C28.2611 12.0847 28.4619 12.1349 28.6626 12.2353C29.1144 12.4361 29.6289 12.6118 30.2062 12.7624C30.7834 12.8879 31.3105 12.9506 31.7874 12.9506C32.716 12.9506 33.1803 12.7373 33.1803 12.3106C33.1803 12.0596 33.0674 11.8463 32.8415 11.6706C32.6156 11.4698 32.0885 11.3318 31.2603 11.2565C30.934 11.2314 30.5074 11.1812 29.9803 11.1059C29.4783 11.0306 28.9764 10.8926 28.4744 10.6918C27.9725 10.4659 27.5458 10.1396 27.1944 9.71297C26.8681 9.2863 26.705 8.70905 26.705 7.9812C26.705 6.85179 27.1317 5.96081 27.985 5.30826C28.8383 4.65571 29.9803 4.32944 31.4109 4.32944C32.2391 4.32944 33.0172 4.41728 33.745 4.59297C34.4979 4.76865 35.0626 5.03218 35.4391 5.38356C35.7905 5.70983 35.9662 6.0863 35.9662 6.51297C35.9662 6.88944 35.8281 7.22826 35.5521 7.52944C35.276 7.83061 34.9246 7.9812 34.4979 7.9812C34.2721 7.9812 34.0587 7.93101 33.8579 7.83062C33.5568 7.62983 33.1677 7.47924 32.6909 7.37885C32.2391 7.27846 31.7748 7.22826 31.2979 7.22826C30.3442 7.22826 29.8674 7.42905 29.8674 7.83062C29.8674 8.0063 29.9552 8.16944 30.1309 8.32003C30.3317 8.44552 30.7709 8.55846 31.4485 8.65885C31.8752 8.70905 32.3646 8.78434 32.9168 8.88473C33.4689 8.96003 33.996 9.11061 34.4979 9.3365C35.025 9.53728 35.4642 9.8761 35.8156 10.353C36.167 10.8298 36.3426 11.4824 36.3426 12.3106C36.3426 13.44 35.8909 14.3436 34.9874 15.0212C34.0838 15.6738 32.8917 16 31.4109 16Z" fill="black"/>
<path d="M18.4559 16C16.7743 16 15.4065 15.473 14.3524 14.4188C13.3233 13.3396 12.8088 11.909 12.8088 10.1271C12.8088 8.34512 13.3108 6.93963 14.3147 5.91061C15.3437 4.8565 16.6865 4.32944 18.3429 4.32944C19.5225 4.32944 20.5516 4.74355 21.43 5.57179C21.5304 5.27061 21.7186 5.01963 21.9947 4.81885C22.2708 4.61806 22.5971 4.51767 22.9735 4.51767C23.4755 4.51767 23.8771 4.66826 24.1782 4.96944C24.5045 5.24552 24.6676 5.58434 24.6676 5.98591V14.5318C24.6676 14.9585 24.5045 15.3098 24.1782 15.5859C23.8771 15.862 23.4755 16 22.9735 16C22.1453 16 21.6308 15.6361 21.43 14.9083C20.6269 15.6361 19.6355 16 18.4559 16ZM18.7194 12.9506C19.5225 12.9506 20.1625 12.6871 20.6394 12.16C21.1163 11.6079 21.3547 10.9302 21.3547 10.1271C21.3547 9.29885 21.1163 8.63375 20.6394 8.13179C20.1625 7.62983 19.5225 7.37885 18.7194 7.37885C17.9414 7.37885 17.3014 7.62983 16.7994 8.13179C16.3225 8.63375 16.0841 9.29885 16.0841 10.1271C16.0841 10.9302 16.3225 11.6079 16.7994 12.16C17.3014 12.6871 17.9414 12.9506 18.7194 12.9506Z" fill="black"/>
<path d="M1.69412 16C1.21725 16 0.815686 15.8494 0.489412 15.5482C0.163137 15.2471 0 14.858 0 14.3812V1.80706C0 1.33019 0.163137 0.941173 0.489412 0.639996C0.815686 0.33882 1.21725 0.188232 1.69412 0.188232C2.19608 0.188232 2.59765 0.33882 2.89882 0.639996C3.2251 0.941173 3.38824 1.33019 3.38824 1.80706V5.12C3.38824 5.54666 3.50118 5.76 3.72706 5.76C3.85255 5.76 3.99059 5.67215 4.14118 5.49647L8.54588 0.790586C8.94745 0.389017 9.37412 0.188232 9.82588 0.188232C10.3027 0.188232 10.7169 0.35137 11.0682 0.677645C11.4196 1.00392 11.5953 1.39294 11.5953 1.8447C11.5953 2.24627 11.4322 2.61019 11.1059 2.93647L6.62588 7.41647L11.6329 13.1388C11.8086 13.3145 11.9216 13.5027 11.9718 13.7035C12.022 13.9043 12.0471 14.1051 12.0471 14.3059C12.0471 14.7576 11.8714 15.1592 11.52 15.5106C11.1686 15.8369 10.7671 16 10.3153 16C9.83843 16 9.39922 15.7992 8.99765 15.3976L4.32941 9.67529L4.02824 9.97647C3.75216 10.2525 3.57647 10.5161 3.50118 10.7671C3.42588 11.018 3.38824 11.3318 3.38824 11.7082V14.3812C3.38824 14.858 3.2251 15.2471 2.89882 15.5482C2.59765 15.8494 2.19608 16 1.69412 16Z" fill="black"/>
</g>
<defs>
<clipPath id="clip0_3_52">
<rect width="89" height="16" fill="white"/>
</clipPath>
</defs>
</svg>
