<svg width="18" height="18" viewBox="0 0 18 18" fill="none" xmlns="http://www.w3.org/2000/svg">
<path d="M16.0727 5C15.4909 5 14.9939 4.80952 14.5818 4.42857C14.1939 4.04762 14 3.59048 14 3.05714C14 2.49841 14.1939 2.01587 14.5818 1.60952C14.9939 1.20317 15.4909 1 16.0727 1C16.6061 1 17.0545 1.20317 17.4182 1.60952C17.8061 2.01587 18 2.49841 18 3.05714C18 3.59048 17.8061 4.04762 17.4182 4.42857C17.0545 4.80952 16.6061 5 16.0727 5Z" fill="#FF719B"/>
<path d="M16.0727 11C15.4909 11 14.9939 10.8095 14.5818 10.4286C14.1939 10.0476 14 9.59048 14 9.05714C14 8.49841 14.1939 8.01587 14.5818 7.60952C14.9939 7.20317 15.4909 7 16.0727 7C16.6061 7 17.0545 7.20317 17.4182 7.60952C17.8061 8.01587 18 8.49841 18 9.05714C18 9.59048 17.8061 10.0476 17.4182 10.4286C17.0545 10.8095 16.6061 11 16.0727 11Z" fill="#FFD54F"/>
<path d="M16.0727 17C15.4909 17 14.9939 16.8095 14.5818 16.4286C14.1939 16.0476 14 15.5905 14 15.0571C14 14.4984 14.1939 14.0159 14.5818 13.6095C14.9939 13.2032 15.4909 13 16.0727 13C16.6061 13 17.0545 13.2032 17.4182 13.6095C17.8061 14.0159 18 14.4984 18 15.0571C18 15.5905 17.8061 16.0476 17.4182 16.4286C17.0545 16.8095 16.6061 17 16.0727 17Z" fill="#26C6DA"/>
<path d="M0.556507 17C0.393265 17 0.259703 16.9467 0.155822 16.84C0.0519408 16.7333 0 16.5962 0 16.4286V1.57143C0 1.40381 0.0519408 1.26667 0.155822 1.16C0.259703 1.05333 0.393265 1 0.556507 1H3.3613C3.52454 1 3.6581 1.05333 3.76199 1.16C3.86587 1.26667 3.91781 1.40381 3.91781 1.57143V6.64571L8.03596 1.43429C8.09532 1.34286 8.19178 1.25143 8.32534 1.16C8.47374 1.05333 8.66667 1 8.90411 1H12.1096C12.2432 1 12.3545 1.05333 12.4435 1.16C12.5325 1.25143 12.5771 1.3581 12.5771 1.48C12.5771 1.58667 12.5474 1.6781 12.488 1.75429L7.16781 8.65714L12.911 16.2457C12.9703 16.3067 13 16.3981 13 16.52C13 16.6419 12.9481 16.7562 12.8442 16.8629C12.7551 16.9543 12.6513 17 12.5325 17H9.21575C8.94863 17 8.74087 16.939 8.59247 16.8171C8.4589 16.6952 8.36986 16.6038 8.32534 16.5429L3.91781 10.8971V16.4286C3.91781 16.5962 3.86587 16.7333 3.76199 16.84C3.6581 16.9467 3.52454 17 3.3613 17H0.556507Z" fill="#F6F5F3"/>
</svg>
