<svg width="84" height="16" viewBox="0 0 84 16" fill="none" xmlns="http://www.w3.org/2000/svg">
<g clip-path="url(#clip0_8_164)">
<path d="M69.1459 7.95294C68.5435 7.95294 68.029 7.76471 67.6023 7.38824C67.2008 7.01177 67 6.56 67 6.03294C67 5.48078 67.2008 5.00392 67.6023 4.60235C68.029 4.20078 68.5435 4 69.1459 4C69.698 4 70.1623 4.20078 70.5388 4.60235C70.9404 5.00392 71.1412 5.48078 71.1412 6.03294C71.1412 6.56 70.9404 7.01177 70.5388 7.38824C70.1623 7.76471 69.698 7.95294 69.1459 7.95294Z" fill="#EC407A"/>
<path d="M75.1459 7.95294C74.5435 7.95294 74.029 7.76471 73.6023 7.38824C73.2008 7.01177 73 6.56 73 6.03294C73 5.48078 73.2008 5.00392 73.6023 4.60235C74.029 4.20078 74.5435 4 75.1459 4C75.698 4 76.1623 4.20078 76.5388 4.60235C76.9404 5.00392 77.1412 5.48078 77.1412 6.03294C77.1412 6.56 76.9404 7.01177 76.5388 7.38824C76.1623 7.76471 75.698 7.95294 75.1459 7.95294Z" fill="#FFB300"/>
<path d="M81.1459 7.95294C80.5435 7.95294 80.029 7.76471 79.6023 7.38824C79.2008 7.01177 79 6.56 79 6.03294C79 5.48078 79.2008 5.00392 79.6023 4.60235C80.029 4.20078 80.5435 4 81.1459 4C81.698 4 82.1623 4.20078 82.5388 4.60235C82.9404 5.00392 83.1412 5.48078 83.1412 6.03294C83.1412 6.56 82.9404 7.01177 82.5388 7.38824C82.1623 7.76471 81.698 7.95294 81.1459 7.95294Z" fill="#00B3C5"/>
<path d="M58.1214 15C57.9747 15 57.8547 14.9533 57.7614 14.86C57.6681 14.7666 57.6214 14.6466 57.6214 14.5V5.09998C57.6214 4.96664 57.6681 4.85331 57.7614 4.75998C57.8547 4.65331 57.9747 4.59998 58.1214 4.59998H60.4214C60.5681 4.59998 60.6881 4.65331 60.7814 4.75998C60.8747 4.85331 60.9214 4.96664 60.9214 5.09998V5.89998C61.2814 5.48664 61.7081 5.16664 62.2014 4.93998C62.7081 4.71331 63.2747 4.59998 63.9014 4.59998H64.7814C64.9147 4.59998 65.0281 4.64664 65.1214 4.73998C65.2281 4.83331 65.2814 4.95331 65.2814 5.09998V7.15998C65.2814 7.29331 65.2281 7.41331 65.1214 7.51998C65.0281 7.61331 64.9147 7.65998 64.7814 7.65998H62.8414C62.2947 7.65998 61.8681 7.81331 61.5614 8.11998C61.2681 8.41331 61.1214 8.83331 61.1214 9.37998V14.5C61.1214 14.6466 61.0681 14.7666 60.9614 14.86C60.8681 14.9533 60.7481 15 60.6014 15H58.1214Z" fill="black"/>
<path d="M50.3344 15.2C49.2144 15.2 48.2677 15.02 47.4944 14.66C46.7344 14.3 46.1477 13.7867 45.7344 13.12C45.3344 12.44 45.1077 11.6333 45.0544 10.7C45.041 10.4333 45.0344 10.1333 45.0344 9.79999C45.0344 9.45333 45.041 9.15333 45.0544 8.89999C45.1077 7.95333 45.3477 7.14666 45.7744 6.47999C46.201 5.81333 46.7944 5.29999 47.5544 4.93999C48.3277 4.57999 49.2544 4.39999 50.3344 4.39999C51.4277 4.39999 52.3544 4.57999 53.1144 4.93999C53.8877 5.29999 54.4877 5.81333 54.9144 6.47999C55.341 7.14666 55.581 7.95333 55.6344 8.89999C55.6477 9.15333 55.6544 9.45333 55.6544 9.79999C55.6544 10.1333 55.6477 10.4333 55.6344 10.7C55.581 11.6333 55.3477 12.44 54.9344 13.12C54.5344 13.7867 53.9477 14.3 53.1744 14.66C52.4144 15.02 51.4677 15.2 50.3344 15.2ZM50.3344 12.76C50.9344 12.76 51.3677 12.58 51.6344 12.22C51.9144 11.86 52.0744 11.32 52.1144 10.6C52.1277 10.4 52.1344 10.1333 52.1344 9.79999C52.1344 9.46666 52.1277 9.19999 52.1144 8.99999C52.0744 8.29333 51.9144 7.75999 51.6344 7.39999C51.3677 7.02666 50.9344 6.83999 50.3344 6.83999C49.7477 6.83999 49.3144 7.02666 49.0344 7.39999C48.7544 7.75999 48.601 8.29333 48.5744 8.99999C48.561 9.19999 48.5544 9.46666 48.5544 9.79999C48.5544 10.1333 48.561 10.4 48.5744 10.6C48.601 11.32 48.7544 11.86 49.0344 12.22C49.3144 12.58 49.7477 12.76 50.3344 12.76Z" fill="black"/>
<path d="M41.3984 15C40.5451 15 39.8051 14.8667 39.1784 14.6C38.5651 14.32 38.0918 13.8933 37.7584 13.32C37.4251 12.7333 37.2584 11.98 37.2584 11.06V7.21999H35.6984C35.5518 7.21999 35.4251 7.17332 35.3184 7.07999C35.2251 6.98666 35.1784 6.86665 35.1784 6.71999V5.09999C35.1784 4.95332 35.2251 4.83332 35.3184 4.73999C35.4251 4.64665 35.5518 4.59999 35.6984 4.59999H37.2584V1.29999C37.2584 1.15332 37.3051 1.03332 37.3984 0.939988C37.5051 0.846654 37.6251 0.799988 37.7584 0.799988H40.0784C40.2251 0.799988 40.3451 0.846654 40.4384 0.939988C40.5318 1.03332 40.5784 1.15332 40.5784 1.29999V4.59999H43.0784C43.2251 4.59999 43.3451 4.64665 43.4384 4.73999C43.5318 4.83332 43.5784 4.95332 43.5784 5.09999V6.71999C43.5784 6.86665 43.5318 6.98666 43.4384 7.07999C43.3451 7.17332 43.2251 7.21999 43.0784 7.21999H40.5784V10.78C40.5784 11.2333 40.6651 11.5933 40.8384 11.86C41.0118 12.1267 41.3051 12.26 41.7184 12.26H43.2584C43.4051 12.26 43.5251 12.3067 43.6184 12.4C43.7118 12.4933 43.7584 12.6133 43.7584 12.76V14.5C43.7584 14.6467 43.7118 14.7667 43.6184 14.86C43.5251 14.9533 43.4051 15 43.2584 15H41.3984Z" fill="black"/>
<path d="M29.3623 15.2C28.4957 15.2 27.7557 15.1067 27.1423 14.92C26.5423 14.72 26.049 14.48 25.6623 14.2C25.289 13.92 25.009 13.6333 24.8223 13.34C24.6357 13.0333 24.5357 12.7733 24.5223 12.56C24.509 12.4133 24.5557 12.2933 24.6623 12.2C24.769 12.0933 24.8823 12.04 25.0023 12.04H27.2823C27.3223 12.04 27.3557 12.0467 27.3823 12.06C27.409 12.0733 27.449 12.1 27.5023 12.14C27.6757 12.2333 27.849 12.3533 28.0223 12.5C28.1957 12.6333 28.3957 12.7533 28.6223 12.86C28.849 12.9667 29.1223 13.02 29.4423 13.02C29.8157 13.02 30.129 12.9467 30.3823 12.8C30.6357 12.6533 30.7623 12.4333 30.7623 12.14C30.7623 11.9267 30.7023 11.7533 30.5823 11.62C30.4623 11.4733 30.2157 11.3333 29.8423 11.2C29.4823 11.0667 28.9357 10.9333 28.2023 10.8C27.509 10.64 26.9023 10.4333 26.3823 10.18C25.8623 9.91333 25.4623 9.57333 25.1823 9.15999C24.9023 8.73333 24.7623 8.21999 24.7623 7.61999C24.7623 7.08666 24.9357 6.57333 25.2823 6.07999C25.629 5.58666 26.1357 5.18666 26.8023 4.87999C27.469 4.55999 28.289 4.39999 29.2623 4.39999C30.0357 4.39999 30.7023 4.49333 31.2623 4.67999C31.8357 4.85333 32.3157 5.07999 32.7023 5.35999C33.1023 5.63999 33.4023 5.92666 33.6023 6.21999C33.8023 6.51333 33.909 6.77999 33.9223 7.01999C33.9357 7.15333 33.8957 7.27333 33.8023 7.37999C33.709 7.47333 33.6023 7.51999 33.4823 7.51999H31.4023C31.349 7.51999 31.2957 7.51333 31.2423 7.49999C31.189 7.47333 31.1423 7.44666 31.1023 7.41999C30.9423 7.33999 30.7823 7.23333 30.6223 7.09999C30.4623 6.96666 30.2757 6.84666 30.0623 6.73999C29.849 6.63333 29.5823 6.57999 29.2623 6.57999C28.9023 6.57999 28.6223 6.65999 28.4223 6.81999C28.2223 6.97999 28.1223 7.18666 28.1223 7.43999C28.1223 7.61333 28.1757 7.77333 28.2823 7.91999C28.4023 8.06666 28.6357 8.19999 28.9823 8.31999C29.3423 8.43999 29.8957 8.57333 30.6423 8.71999C31.5623 8.86666 32.2957 9.10666 32.8423 9.43999C33.389 9.75999 33.7757 10.14 34.0023 10.58C34.229 11.0067 34.3423 11.46 34.3423 11.94C34.3423 12.58 34.149 13.1467 33.7623 13.64C33.389 14.1333 32.829 14.52 32.0823 14.8C31.3357 15.0667 30.429 15.2 29.3623 15.2Z" fill="black"/>
<path d="M16.4055 15.2C15.6855 15.2 15.0388 15.0667 14.4655 14.8C13.9055 14.52 13.4588 14.1467 13.1255 13.68C12.7921 13.2133 12.6255 12.6867 12.6255 12.1C12.6255 11.1533 13.0121 10.4067 13.7855 9.85999C14.5588 9.29999 15.5855 8.91999 16.8655 8.71999L19.3655 8.33999V8.05999C19.3655 7.57999 19.2655 7.21333 19.0655 6.95999C18.8655 6.70666 18.4988 6.57999 17.9655 6.57999C17.5921 6.57999 17.2855 6.65333 17.0455 6.79999C16.8188 6.94666 16.6388 7.14666 16.5055 7.39999C16.3855 7.57333 16.2188 7.65999 16.0055 7.65999H13.7655C13.6188 7.65999 13.5055 7.61999 13.4255 7.53999C13.3455 7.44666 13.3121 7.33999 13.3255 7.21999C13.3255 6.97999 13.4121 6.70666 13.5855 6.39999C13.7721 6.07999 14.0521 5.76666 14.4255 5.45999C14.7988 5.15333 15.2788 4.89999 15.8655 4.69999C16.4521 4.49999 17.1588 4.39999 17.9855 4.39999C18.8521 4.39999 19.5921 4.49999 20.2055 4.69999C20.8188 4.89999 21.3121 5.17999 21.6855 5.53999C22.0721 5.89999 22.3588 6.32666 22.5455 6.81999C22.7321 7.29999 22.8255 7.83333 22.8255 8.41999V14.5C22.8255 14.6467 22.7721 14.7667 22.6655 14.86C22.5721 14.9533 22.4588 15 22.3255 15H20.0055C19.8588 15 19.7388 14.9533 19.6455 14.86C19.5521 14.7667 19.5055 14.6467 19.5055 14.5V13.8C19.3321 14.0533 19.0988 14.2867 18.8055 14.5C18.5121 14.7133 18.1655 14.88 17.7655 15C17.3788 15.1333 16.9255 15.2 16.4055 15.2ZM17.3455 12.92C17.7321 12.92 18.0788 12.84 18.3855 12.68C18.7055 12.5067 18.9521 12.2467 19.1255 11.9C19.3121 11.54 19.4055 11.0933 19.4055 10.56V10.28L17.7055 10.58C17.0788 10.6867 16.6188 10.8533 16.3255 11.08C16.0455 11.2933 15.9055 11.5467 15.9055 11.84C15.9055 12.0667 15.9721 12.26 16.1055 12.42C16.2388 12.58 16.4121 12.7067 16.6255 12.8C16.8388 12.88 17.0788 12.92 17.3455 12.92Z" fill="black"/>
<path d="M0.9 15C0.753333 15 0.633333 14.9533 0.54 14.86C0.446666 14.7667 0.4 14.6467 0.4 14.5V1.5C0.4 1.35333 0.446666 1.23333 0.54 1.14C0.633333 1.04667 0.753333 1 0.9 1H3.42C3.56667 1 3.68667 1.04667 3.78 1.14C3.87333 1.23333 3.92 1.35333 3.92 1.5V5.94L7.62 1.38C7.67333 1.3 7.76 1.22 7.88 1.14C8.01333 1.04667 8.18667 1 8.4 1H11.28C11.4 1 11.5 1.04667 11.58 1.14C11.66 1.22 11.7 1.31333 11.7 1.42C11.7 1.51333 11.6733 1.59333 11.62 1.66L6.84 7.7L12 14.34C12.0533 14.3933 12.08 14.4733 12.08 14.58C12.08 14.6867 12.0333 14.7867 11.94 14.88C11.86 14.96 11.7667 15 11.66 15H8.68C8.44 15 8.25333 14.9467 8.12 14.84C8 14.7333 7.92 14.6533 7.88 14.6L3.92 9.66V14.5C3.92 14.6467 3.87333 14.7667 3.78 14.86C3.68667 14.9533 3.56667 15 3.42 15H0.9Z" fill="black"/>
</g>
<defs>
<clipPath id="clip0_8_164">
<rect width="84" height="16" fill="white"/>
</clipPath>
</defs>
</svg>
