<svg width="18" height="18" viewBox="0 0 18 18" fill="none" xmlns="http://www.w3.org/2000/svg">
<path d="M16.0727 5C15.4909 5 14.9939 4.80952 14.5818 4.42857C14.1939 4.04762 14 3.59048 14 3.05714C14 2.49841 14.1939 2.01587 14.5818 1.60952C14.9939 1.20317 15.4909 1 16.0727 1C16.6061 1 17.0545 1.20317 17.4182 1.60952C17.8061 2.01587 18 2.49841 18 3.05714C18 3.59048 17.8061 4.04762 17.4182 4.42857C17.0545 4.80952 16.6061 5 16.0727 5Z" fill="#EC407A"/>
<path d="M16.0727 11C15.4909 11 14.9939 10.8095 14.5818 10.4286C14.1939 10.0476 14 9.59048 14 9.05714C14 8.49841 14.1939 8.01587 14.5818 7.60952C14.9939 7.20317 15.4909 7 16.0727 7C16.6061 7 17.0545 7.20317 17.4182 7.60952C17.8061 8.01587 18 8.49841 18 9.05714C18 9.59048 17.8061 10.0476 17.4182 10.4286C17.0545 10.8095 16.6061 11 16.0727 11Z" fill="#FFB300"/>
<path d="M16.0727 17C15.4909 17 14.9939 16.8095 14.5818 16.4286C14.1939 16.0476 14 15.5905 14 15.0571C14 14.4984 14.1939 14.0159 14.5818 13.6095C14.9939 13.2032 15.4909 13 16.0727 13C16.6061 13 17.0545 13.2032 17.4182 13.6095C17.8061 14.0159 18 14.4984 18 15.0571C18 15.5905 17.8061 16.0476 17.4182 16.4286C17.0545 16.8095 16.6061 17 16.0727 17Z" fill="#00B3C5"/>
<path d="M1.6875 17C1.2125 17 0.8125 16.8476 0.4875 16.5429C0.1625 16.2381 0 15.8444 0 15.3619V2.6381C0 2.15556 0.1625 1.7619 0.4875 1.45714C0.8125 1.15238 1.2125 1 1.6875 1C2.1875 1 2.5875 1.15238 2.8875 1.45714C3.2125 1.7619 3.375 2.15556 3.375 2.6381V5.99048C3.375 6.42222 3.4875 6.63809 3.7125 6.63809C3.8375 6.63809 3.975 6.54921 4.125 6.37143L8.5125 1.60952C8.9125 1.20317 9.3375 1 9.7875 1C10.2625 1 10.675 1.16508 11.025 1.49524C11.375 1.8254 11.55 2.21905 11.55 2.67619C11.55 3.08254 11.3875 3.45079 11.0625 3.78095L6.6 8.31429L11.5875 14.1048C11.7625 14.2825 11.875 14.473 11.925 14.6762C11.975 14.8794 12 15.0825 12 15.2857C12 15.7429 11.825 16.1492 11.475 16.5048C11.125 16.8349 10.725 17 10.275 17C9.8 17 9.3625 16.7968 8.9625 16.3905L4.3125 10.6L4.0125 10.9048C3.7375 11.1841 3.5625 11.4508 3.4875 11.7048C3.4125 11.9587 3.375 12.2762 3.375 12.6571V15.3619C3.375 15.8444 3.2125 16.2381 2.8875 16.5429C2.5875 16.8476 2.1875 17 1.6875 17Z" fill="black"/>
</svg>
